<svg width="51" height="50" fill="none" xmlns="http://www.w3.org/2000/svg">
<g clip-path="url(#clip0)">
<path fill-rule="evenodd" clip-rule="evenodd" d="M25.256 23.124l1.12-2.348c.277-.582.76-1.418 1.441-2.095.671-.665 1.475-1.118 2.446-1.118 2.098 0 3.756 1.74 3.756 3.834 0 1.59-.694 2.712-2.338 4.424-.422.439-.903.912-1.435 1.435-1.387 1.366-3.112 3.064-4.99 5.336-1.878-2.272-3.603-3.97-4.99-5.336a74.378 74.378 0 01-1.434-1.435c-1.645-1.712-2.339-2.835-2.339-4.424 0-2.093 1.658-3.834 3.756-3.834.971 0 1.775.453 2.446 1.119.682.676 1.164 1.512 1.442 2.094l1.12 2.348zm.49 10.887a.646.646 0 01-.22.176.617.617 0 01-.76-.176c-2.005-2.497-3.819-4.283-5.312-5.752-2.585-2.546-4.212-4.146-4.212-6.862 0-2.843 2.24-5.147 5.007-5.147 2.003 0 3.404 1.378 4.261 2.636.325.48.573.94.746 1.303.217-.454.466-.89.746-1.303.858-1.259 2.259-2.636 4.261-2.636 2.767 0 5.008 2.304 5.008 5.147 0 2.716-1.628 4.316-4.213 6.862-1.493 1.47-3.307 3.256-5.311 5.75v.002z" fill="#192144" opacity=".5"/>
</g><defs>
<clipPath id="clip0">
<path fill="#fff" transform="translate(15.242 15)" d="M0 0h20.029v20H0z"/>
</clipPath></defs>
</svg>
